<svg width="256" height="256" viewBox="0 0 256 256" fill="none" xmlns="http://www.w3.org/2000/svg">
<path d="M127.9 19.075C66.075 19.05 16 69.1 16 130.875C16 179.725 47.325 221.25 90.95 236.5C96.825 237.975 95.925 233.8 95.925 230.95V211.575C62 215.55 60.625 193.1 58.35 189.35C53.75 181.5 42.875 179.5 46.125 175.75C53.85 171.775 61.725 176.75 70.85 190.225C77.45 200 90.325 198.35 96.85 196.725C98.275 190.85 101.325 185.6 105.525 181.525C70.375 175.225 55.725 153.775 55.725 128.275C55.725 115.9 59.8 104.525 67.8 95.35C62.7 80.225 68.275 67.275 69.025 65.35C83.55 64.05 98.65 75.75 99.825 76.675C108.075 74.45 117.5 73.275 128.05 73.275C138.65 73.275 148.1 74.5 156.425 76.75C159.25 74.6 173.25 64.55 186.75 65.775C187.475 67.7 192.925 80.35 188.125 95.275C196.225 104.475 200.35 115.95 200.35 128.35C200.35 153.9 185.6 175.375 150.35 181.575C153.369 184.544 155.767 188.085 157.402 191.991C159.037 195.898 159.878 200.09 159.875 204.325V232.45C160.075 234.7 159.875 236.925 163.625 236.925C207.9 222 239.775 180.175 239.775 130.9C239.775 69.1 189.675 19.075 127.9 19.075Z" fill="black"/>
</svg>
